<svg width="152" height="86" viewBox="0 0 152 86" fill="none" xmlns="http://www.w3.org/2000/svg">
<path d="M137.81 34.8225C145.383 34.8225 151.522 28.7193 151.522 21.1906C151.522 13.6618 145.383 7.55859 137.81 7.55859C130.237 7.55859 124.098 13.6618 124.098 21.1906C124.098 28.7193 130.237 34.8225 137.81 34.8225Z" fill="#08C8A7"/>
<path d="M109.667 34.6875L17.4453 34.6875C7.81992 34.6875 0.000183105 26.9132 0.000183105 17.3439C0.000183105 7.77449 7.81992 0.000225067 17.4453 0.000225067L92.2214 0.000225067C101.847 0.000225067 109.667 7.77449 109.667 17.3439V34.6875Z" fill="#450693"/>
<path d="M13.7796 85.801C21.3523 85.801 27.4912 79.6978 27.4912 72.1691C27.4912 64.6404 21.3523 58.5371 13.7796 58.5371C6.2068 58.5371 0.0678711 64.6404 0.0678711 72.1691C0.0678711 79.6978 6.2068 85.801 13.7796 85.801Z" fill="#8C00FF"/>
<path d="M58.051 50.9648H132.827C142.453 50.9648 150.272 58.7391 150.272 68.3085C150.272 77.8779 142.453 85.6521 132.827 85.6521H40.606V68.3085C40.606 58.7391 48.4257 50.9648 58.051 50.9648Z" fill="#450693"/>
</svg>
