<svg width="268" height="66" viewBox="0 0 268 66" fill="none" xmlns="http://www.w3.org/2000/svg">
<path d="M10.1548 44.8126L0.459126 23.2825C0.135037 22.6034 0 21.9378 0 21.3265C0 19.3025 1.56643 17.6182 3.64599 17.6182C5.07739 17.6182 6.44126 18.2973 7.29199 20.3213C10.0197 26.7328 13.2066 34.231 14.9621 39.0803H15.0296C16.65 34.2174 19.7829 26.597 22.6997 20.2534C23.5504 18.2294 24.9143 17.6182 26.2782 17.6182C28.1687 17.6182 29.7216 19.3025 29.7216 21.2586C29.7216 21.9378 29.5866 22.549 29.33 23.2146L19.5803 44.9485C18.4055 47.4479 17.1092 48.4531 14.9621 48.4531C12.68 48.4531 11.3836 47.4343 10.1548 44.8126Z" fill="#8C00FF"/>
<path d="M46.6553 17.21C54.9736 17.21 59.862 23.6214 59.862 30.5763C59.862 31.7309 59.6729 32.6002 59.0112 33.4153C58.2955 34.2982 57.1882 34.5019 55.5003 34.5019H39.1203C39.9035 39.4328 43.536 42.0545 48.4243 42.0545C50.2473 42.0545 51.8678 41.579 53.0426 41.1851C54.0824 40.9134 54.663 40.7097 55.3787 40.7097C57.0667 40.7097 58.309 42.1224 58.309 43.8203C58.309 45.0972 57.5933 46.3197 56.1619 46.9989C54.0149 48.072 51.0846 48.8191 47.8437 48.8191C38.7422 48.8191 31.8418 42.5435 31.8418 32.9534C31.8418 23.9067 38.013 17.2235 46.6688 17.2235L46.6553 17.21ZM53.2316 29.5575C53.1641 26.1208 50.6254 23.2139 46.5338 23.2139C42.7663 23.2139 40.1601 25.5775 39.3228 29.5575H53.2451H53.2316Z" fill="#8C00FF"/>
<path d="M65.0742 44.4724V21.4616C65.0742 19.3018 66.6947 17.6175 68.7877 17.6175C70.8808 17.6175 72.4877 19.3018 72.4877 21.4616V21.8692C74.8239 18.9623 77.8892 17.21 81.5892 17.21C87.1122 17.21 91.798 21.0541 91.798 28.0769V44.4724C91.798 46.6322 90.1101 48.4524 88.152 48.4524C86.194 48.4524 84.3845 46.6322 84.3845 44.4724V29.6933C84.3845 26.1208 82.494 23.8931 79.1856 23.8931C76.4578 23.8931 74.0542 25.5775 72.4877 28.6202V44.4859C72.4877 46.6457 70.7998 48.4659 68.7877 48.4659C66.7757 48.4659 65.0742 46.6457 65.0742 44.4859V44.4724Z" fill="#8C00FF"/>
<path d="M99.063 39.0805V24.3694H96.4567C95.1604 24.3694 94.1206 23.4186 94.1206 22.1417C94.1206 21.3267 94.4447 20.7969 95.2954 19.9819L102.128 13.91C102.912 13.1629 103.425 12.6875 104.343 12.6875C105.45 12.6875 106.49 13.5025 106.49 15.3906V17.8221H114.943C116.631 17.8221 118.13 19.2348 118.13 21.1365C118.13 23.0382 116.631 24.3694 114.943 24.3694H106.49V37.8037C106.49 40.371 107.921 41.7837 110.258 41.7837C111.621 41.7837 112.661 41.4441 113.512 41.1045C114.16 40.8328 114.808 40.6291 115.524 40.5612C117.347 40.4932 118.576 42.1097 118.576 43.8756C118.576 45.2883 117.725 46.2391 116.294 46.9862C114.997 47.7333 112.526 48.6706 109.204 48.6706C102.371 48.6706 99.063 45.0981 99.063 39.0805Z" fill="#8C00FF"/>
<path d="M149.864 21.4625V44.4732C149.864 46.633 148.176 48.4532 146.151 48.4532C144.125 48.4532 142.505 46.7689 142.383 44.7449C140.304 47.1764 137.373 48.7928 134.119 48.7928C125.922 48.7928 120.332 41.4984 120.332 32.9951C120.332 24.4917 125.922 17.1973 134.119 17.1973C138.021 17.1973 140.749 18.7458 142.505 20.4302C142.964 18.8137 144.395 17.5912 146.151 17.5912C148.163 17.5912 149.864 19.3435 149.864 21.4354V21.4625ZM135.82 41.9195C138.548 41.9195 140.898 40.5068 142.383 38.2112V27.6159C141.019 25.4561 138.548 24.0434 135.82 24.0434C131.594 24.0434 127.948 27.6838 127.948 33.0222C127.948 38.3606 131.594 41.9331 135.82 41.9331V41.9195Z" fill="#8C00FF"/>
<path d="M155.819 61.2889V21.3937C155.819 19.2339 157.372 17.6175 159.398 17.6175C161.423 17.6175 163.044 19.3018 163.044 21.3937V21.9371C165.191 19.0302 167.851 17.21 171.565 17.21C179.505 17.21 185.217 24.3006 185.217 33.0077C185.217 41.7149 179.626 48.8055 171.295 48.8055C167.392 48.8055 164.732 47.3249 163.233 45.5726V61.3025C163.233 63.3944 161.612 65.2146 159.519 65.2146C157.426 65.2146 155.819 63.4623 155.819 61.3025V61.2889ZM169.796 41.9186C174.022 41.9186 177.601 38.2782 177.601 33.0077C177.601 27.7373 174.022 24.029 169.863 24.029C167.203 24.029 164.664 25.6454 163.233 28.1448V38.0609C164.529 40.3565 166.946 41.905 169.796 41.905V41.9186Z" fill="#08C8A7"/>
<path d="M190.699 44.4729V3.91209C190.699 1.75229 192.387 0 194.399 0C196.411 0 198.112 1.75229 198.112 3.91209V44.4729C198.112 46.6327 196.492 48.4529 194.466 48.4529C192.441 48.4529 190.699 46.6327 190.699 44.4729Z" fill="#08C8A7"/>
<path d="M233.168 21.4625V44.4732C233.168 46.633 231.48 48.4532 229.455 48.4532C227.429 48.4532 225.809 46.7689 225.687 44.7449C223.608 47.1764 220.677 48.7928 217.423 48.7928C209.226 48.7928 203.636 41.4984 203.636 32.9951C203.636 24.4917 209.226 17.1973 217.423 17.1973C221.326 17.1973 224.053 18.7458 225.809 20.4302C226.268 18.8137 227.699 17.5912 229.455 17.5912C231.467 17.5912 233.168 19.3435 233.168 21.4354V21.4625ZM219.124 41.9195C221.852 41.9195 224.202 40.5068 225.687 38.2112V27.6159C224.323 25.4561 221.852 24.0434 219.124 24.0434C214.898 24.0434 211.252 27.6838 211.252 33.0222C211.252 38.3606 214.898 41.9331 219.124 41.9331V41.9195Z" fill="#08C8A7"/>
<path d="M242.362 61.8616C242.362 61.1824 242.497 60.5168 242.821 59.8377L248.668 47.4222L238.459 23.6644C238.135 22.9173 238 22.3196 238 21.7083C238 19.6844 239.62 18 241.714 18C243.01 18 244.441 18.6792 245.36 20.7031C247.642 26.1638 250.693 34.0015 252.773 39.6659C254.988 33.594 258.039 26.4354 260.443 20.6352C261.348 18.6113 262.712 18 264.089 18C265.912 18 267.533 19.6844 267.533 21.6404C267.533 22.3196 267.398 22.9309 267.073 23.5965L249.451 62.8125C248.546 64.8364 247.183 65.5156 245.805 65.5156C243.915 65.5156 242.362 63.7633 242.362 61.8752V61.8616Z" fill="#08C8A7"/>
</svg>
