<svg width="275" height="170" viewBox="0 0 275 170" fill="none" xmlns="http://www.w3.org/2000/svg">
<g clip-path="url(#clip0_1004_390)">
<path d="M10.4427 149.2L0.472771 127.236C0.13905 126.544 0 125.865 0 125.241C0 123.176 1.61298 121.458 3.75436 121.458C5.22829 121.458 6.6327 122.151 7.50872 124.216C10.3175 130.756 13.5991 138.405 15.4068 143.352H15.4763C17.1449 138.391 20.3709 130.618 23.3744 124.146C24.2504 122.082 25.6548 121.458 27.0592 121.458C29.0059 121.458 30.605 123.176 30.605 125.172C30.605 125.865 30.4659 126.488 30.2017 127.167L20.1623 149.339C18.9526 151.888 17.6177 152.914 15.4068 152.914C13.0568 152.914 11.7219 151.875 10.4566 149.2H10.4427Z" fill="#8C00FF"/>
<path d="M48.0282 121.042C56.5938 121.042 61.6274 127.583 61.6274 134.677C61.6274 135.855 61.4327 136.742 60.7514 137.574C60.0144 138.474 58.8742 138.682 57.136 138.682H40.2692C41.0757 143.712 44.8162 146.387 49.8498 146.387C51.727 146.387 53.3956 145.902 54.6053 145.5C55.676 145.223 56.2739 145.015 57.0109 145.015C58.749 145.015 60.0283 146.456 60.0283 148.188C60.0283 149.491 59.2913 150.738 57.8174 151.431C55.6065 152.526 52.5891 153.288 49.2519 153.288C39.8799 153.288 32.7744 146.886 32.7744 137.102C32.7744 127.874 39.129 121.056 48.0421 121.056L48.0282 121.042ZM54.8 133.638C54.7305 130.132 52.1163 127.167 47.9031 127.167C44.0236 127.167 41.3399 129.578 40.4778 133.638H54.8139H54.8Z" fill="#8C00FF"/>
<path d="M67.0083 148.853V125.379C67.0083 123.176 68.6769 121.458 70.8322 121.458C72.9875 121.458 74.6422 123.176 74.6422 125.379V125.795C77.0477 122.83 80.2042 121.042 84.0142 121.042C89.7013 121.042 94.5264 124.964 94.5264 132.128V148.853C94.5264 151.057 92.7882 152.914 90.772 152.914C88.7558 152.914 86.8925 151.057 86.8925 148.853V133.777C86.8925 130.132 84.9458 127.86 81.5391 127.86C78.7303 127.86 76.2552 129.578 74.6422 132.682V148.867C74.6422 151.071 72.904 152.927 70.8322 152.927C68.7603 152.927 67.0083 151.071 67.0083 148.867V148.853Z" fill="#8C00FF"/>
<path d="M101.994 143.352V128.345H99.3099C97.975 128.345 96.9043 127.375 96.9043 126.072C96.9043 125.241 97.238 124.7 98.114 123.869L105.15 117.675C105.956 116.913 106.485 116.428 107.43 116.428C108.571 116.428 109.641 117.259 109.641 119.185V121.666H118.346C120.084 121.666 121.627 123.107 121.627 125.047C121.627 126.987 120.084 128.345 118.346 128.345H109.641V142.05C109.641 144.669 111.115 146.11 113.521 146.11C114.925 146.11 115.996 145.763 116.872 145.417C117.539 145.14 118.207 144.932 118.944 144.863C120.821 144.793 122.086 146.442 122.086 148.244C122.086 149.685 121.21 150.655 119.736 151.417C118.401 152.179 115.857 153.135 112.436 153.135C105.4 153.135 101.994 149.491 101.994 143.352Z" fill="#8C00FF"/>
<path d="M154.304 125.379V148.854C154.304 151.057 152.566 152.914 150.48 152.914C148.395 152.914 146.726 151.195 146.601 149.131C144.46 151.611 141.442 153.26 138.091 153.26C129.651 153.26 123.894 145.819 123.894 137.144C123.894 128.47 129.651 121.028 138.091 121.028C142.11 121.028 144.918 122.608 146.726 124.326C147.199 122.677 148.673 121.43 150.48 121.43C152.552 121.43 154.304 123.218 154.304 125.352V125.379ZM139.843 146.235C142.652 146.235 145.071 144.793 146.601 142.452V131.643C145.197 129.44 142.652 127.998 139.843 127.998C135.491 127.998 131.736 131.712 131.736 137.158C131.736 142.604 135.491 146.248 139.843 146.248V146.235Z" fill="#8C00FF"/>
<path d="M160.437 166.009V125.31C160.437 123.107 162.036 121.458 164.121 121.458C166.207 121.458 167.876 123.176 167.876 125.31V125.864C170.087 122.899 172.826 121.042 176.65 121.042C184.826 121.042 190.708 128.275 190.708 137.158C190.708 146.04 184.951 153.274 176.372 153.274C172.353 153.274 169.614 151.763 168.07 149.976V166.022C168.07 168.156 166.402 170.013 164.247 170.013C162.091 170.013 160.437 168.226 160.437 166.022V166.009ZM174.842 146.234C179.194 146.234 182.879 142.521 182.879 137.144C182.879 131.767 179.194 127.984 174.912 127.984C172.172 127.984 169.558 129.633 168.084 132.183V142.299C169.419 144.641 171.908 146.221 174.842 146.221V146.234Z" fill="#08C8A7"/>
<path d="M196.353 148.854V107.476C196.353 105.273 198.091 103.485 200.163 103.485C202.235 103.485 203.987 105.273 203.987 107.476V148.854C203.987 151.057 202.318 152.914 200.233 152.914C198.147 152.914 196.353 151.057 196.353 148.854Z" fill="#08C8A7"/>
<path d="M240.098 125.379V148.854C240.098 151.057 238.36 152.914 236.274 152.914C234.189 152.914 232.52 151.195 232.395 149.131C230.254 151.611 227.236 153.26 223.885 153.26C215.445 153.26 209.688 145.819 209.688 137.144C209.688 128.47 215.445 121.028 223.885 121.028C227.904 121.028 230.712 122.608 232.52 124.326C232.993 122.677 234.467 121.43 236.274 121.43C238.346 121.43 240.098 123.218 240.098 125.352V125.379ZM225.637 146.235C228.446 146.235 230.865 144.793 232.395 142.452V131.643C230.991 129.44 228.446 127.998 225.637 127.998C221.285 127.998 217.53 131.712 217.53 137.158C217.53 142.604 221.285 146.248 225.637 146.248V146.235Z" fill="#08C8A7"/>
<path d="M249.081 166.203C249.081 165.51 249.22 164.831 249.554 164.138L255.575 151.473L245.063 127.236C244.729 126.474 244.59 125.865 244.59 125.241C244.59 123.176 246.258 121.458 248.414 121.458C249.749 121.458 251.223 122.151 252.168 124.216C254.518 129.786 257.661 137.782 259.802 143.56C262.082 137.366 265.225 130.063 267.7 124.146C268.632 122.082 270.036 121.458 271.454 121.458C273.332 121.458 275 123.176 275 125.172C275 125.865 274.861 126.488 274.527 127.167L256.381 167.173C255.45 169.238 254.045 169.93 252.627 169.93C250.68 169.93 249.081 168.143 249.081 166.217V166.203Z" fill="#08C8A7"/>
<path d="M206.726 38.9526C215.174 38.9526 222.022 32.1281 222.022 23.7097C222.022 15.2913 215.174 8.4668 206.726 8.4668C198.279 8.4668 191.431 15.2913 191.431 23.7097C191.431 32.1281 198.279 38.9526 206.726 38.9526Z" fill="#08C8A7"/>
<path d="M175.329 38.8008L72.4313 38.8008C61.6966 38.8008 52.9643 30.1123 52.9643 19.4007C52.9643 8.68911 61.6827 0.000652313 72.4313 0.000652313L155.862 0.000652313C166.61 0.000652313 175.329 8.68911 175.329 19.4007V38.8008Z" fill="#450693"/>
<path d="M68.3434 95.9614C76.7909 95.9614 83.6389 89.1369 83.6389 80.7185C83.6389 72.3001 76.7909 65.4756 68.3434 65.4756C59.8959 65.4756 53.0479 72.3001 53.0479 80.7185C53.0479 89.1369 59.8959 95.9614 68.3434 95.9614Z" fill="#8C00FF"/>
<path d="M117.734 57.0088H201.164C211.913 57.0088 220.631 65.6972 220.631 76.4089C220.631 87.1205 211.913 95.8089 201.164 95.8089H98.2671V76.4089C98.2671 65.6972 106.986 57.0088 117.734 57.0088Z" fill="#450693"/>
</g>
<defs>
<clipPath id="clip0_1004_390">
<rect width="275" height="170" fill="white"/>
</clipPath>
</defs>
</svg>
